# xmcd
#
# Track frame offsets: 
#        150
#        15016
#        29630
#        41037
#        56907
#        69696
#        79967
#        93797
#        106681
#        119284
#        130901
#        145209
#        157499
#        169869
#        184345
#        195748
#        208160
#        222358
#        234683
#        249468
#        268401
#        289295
#        303574
#        318843
#        333118
#
# Disc length: 4608 seconds
#
# Revision: 0
# Processed by: cddbd v1.5.2PL0 Copyright (c) Steve Scherf et al.
# Submitted via: ExactAudioCopyFreeDBPlugin 1.0
#
DISCID=8111fe19
DTITLE=Big Joe Williams - The essential Big Joe Williams CD2
DYEAR=2012
DGENRE=Blues
TTITLE0=I got the best king bisquit
TTITLE1=No more whiskey
TTITLE2=Down in the bottom
TTITLE3=Jiving the blues
TTITLE4=Goin' back
TTITLE5=Overhaul your machine
TTITLE6=Somebody's been borrowing that stuff
TTITLE7=Drop down mama
TTITLE8=Mellow apples
TTITLE9=Juanita
TTITLE10=Someday baby
TTITLE11=Mama don't allow me
TTITLE12=Bead heart blues
TTITLE13=Break 'em on down
TTITLE14=Greystone blues
TTITLE15=Overhauling blues
TTITLE16=Yo yo blues
TTITLE17=My baby keeps hanging around
TTITLE18=Tijuana blues
TTITLE19=Four corners of the world
TTITLE20=Indiana woman blues
TTITLE21=45 blues
TTITLE22=Poor beggar
TTITLE23=Shetland pony blues
TTITLE24=Haunted house blues
EXTD=
EXTT0=
EXTT1=
EXTT2=
EXTT3=
EXTT4=
EXTT5=
EXTT6=
EXTT7=
EXTT8=
EXTT9=
EXTT10=
EXTT11=
EXTT12=
EXTT13=
EXTT14=
EXTT15=
EXTT16=
EXTT17=
EXTT18=
EXTT19=
EXTT20=
EXTT21=
EXTT22=
EXTT23=
EXTT24=
PLAYORDER=
